<svg width="222" height="154" viewBox="0 0 222 154" fill="none" xmlns="http://www.w3.org/2000/svg">
<path d="M7.48 140.42C8.92 141.06 9.64 142.133 9.64 143.64C9.64 144.96 9.22667 146.033 8.4 146.86C7.53333 147.727 6.34667 148.16 4.84 148.16C4.21333 148.16 3.56 148.1 2.88 147.98C2.34667 147.887 1.81333 147.76 1.28 147.6L0.7 147.4V143.8H1.68C1.90667 143.8 2.04 143.913 2.08 144.14C2.10667 144.247 2.14 144.573 2.18 145.12L2.24 146C3.28 146.373 4.09333 146.56 4.68 146.56C5.26667 146.56 5.76 146.493 6.16 146.36C6.54667 146.24 6.85333 146.06 7.08 145.82C7.58667 145.353 7.84 144.72 7.84 143.92C7.84 143.147 7.48 142.56 6.76 142.16C6.44 141.96 6.08 141.8 5.68 141.68C4.25333 141.24 3.41333 140.96 3.16 140.84C2.77333 140.667 2.40667 140.427 2.06 140.12C1.35333 139.493 1 138.6 1 137.44C1 136.387 1.38 135.48 2.14 134.72C2.96667 133.92 4.03333 133.52 5.34 133.52C6.72667 133.52 8.06667 133.787 9.36 134.32V137.62H8.4C8.16 137.62 8.02 137.507 7.98 137.28C7.98 137.24 7.96667 137.107 7.94 136.88C7.92667 136.64 7.89333 136.18 7.84 135.5C6.90667 135.247 6.12 135.12 5.48 135.12C4.61333 135.12 3.94667 135.333 3.48 135.76C3.02667 136.173 2.8 136.707 2.8 137.36C2.8 138.067 3.16 138.62 3.88 139.02C4.17333 139.207 4.54667 139.373 5 139.52C6.2 139.92 7.04 140.22 7.52 140.42H7.48ZM14.0372 139.24C15.0105 138.227 16.0905 137.72 17.2772 137.72C18.3572 137.72 19.1972 138.067 19.7972 138.76C20.3839 139.453 20.6772 140.387 20.6772 141.56V146.54C21.3172 146.66 21.6972 146.74 21.8172 146.78C22.0172 146.82 22.1172 146.947 22.1172 147.16V148H18.8972V141.56C18.8972 139.947 18.1839 139.14 16.7572 139.14C15.7839 139.14 14.8772 139.613 14.0372 140.56V146.56L14.2772 146.6L15.1572 146.78C15.3705 146.82 15.4772 146.947 15.4772 147.16V148H10.7972V147.16C10.7972 146.947 10.9039 146.82 11.1172 146.78L12.2372 146.56V134.74C11.4772 134.62 11.0372 134.54 10.9172 134.5C10.7039 134.46 10.5972 134.333 10.5972 134.12V133.28H14.0372V139.24ZM32.0572 146.72C32.1505 146.733 32.2239 146.78 32.2772 146.86C32.3305 146.927 32.3572 147.007 32.3572 147.1V147.96H30.2772C30.1572 147.96 30.0172 147.933 29.8572 147.88C29.7639 147.853 29.6972 147.747 29.6572 147.56L29.4572 146.6L28.6572 147.26C28.4305 147.447 28.1639 147.607 27.8572 147.74C27.5639 147.873 27.2705 147.973 26.9772 148.04C26.7105 148.107 26.3505 148.14 25.8972 148.14C25.5239 148.14 25.1639 148.08 24.8172 147.96C24.4039 147.813 24.1039 147.653 23.9172 147.48C23.6772 147.267 23.4772 146.987 23.3172 146.64C23.1705 146.333 23.0972 145.933 23.0972 145.44C23.0972 145.013 23.2039 144.627 23.4172 144.28C23.6572 143.893 24.0172 143.56 24.4972 143.28C25.0305 142.973 25.6705 142.733 26.4172 142.56C27.1905 142.387 28.1639 142.3 29.3372 142.3V141.52C29.3372 140.733 29.1639 140.133 28.8172 139.72C28.4705 139.307 27.9705 139.1 27.3172 139.1C26.8905 139.1 26.5239 139.16 26.2172 139.28C25.8705 139.413 25.6172 139.533 25.4572 139.64C25.3772 139.693 25.2839 139.753 25.1772 139.82C25.0839 139.873 24.9839 139.933 24.8772 140C24.7305 140.107 24.5772 140.16 24.4172 140.16C24.2705 140.16 24.1639 140.133 24.0972 140.08C24.0172 140.013 23.9505 139.933 23.8972 139.84L23.5772 139.28C24.0972 138.773 24.6972 138.373 25.3772 138.08C25.9905 137.813 26.7105 137.68 27.5372 137.68C28.1372 137.68 28.6439 137.773 29.0572 137.96C29.5105 138.16 29.8772 138.413 30.1572 138.72C30.4505 139.027 30.6772 139.427 30.8372 139.92C30.9839 140.36 31.0572 140.88 31.0572 141.48V146.54C31.6972 146.673 32.0305 146.747 32.0572 146.76V146.72ZM29.2972 143.44C28.4305 143.44 27.7372 143.487 27.2172 143.58C26.7105 143.673 26.2439 143.813 25.8172 144C25.4439 144.173 25.1772 144.373 25.0172 144.6C24.8572 144.84 24.7772 145.093 24.7772 145.36C24.7772 145.573 24.8239 145.8 24.9172 146.04C24.9972 146.24 25.1172 146.4 25.2772 146.52C25.4372 146.64 25.6105 146.727 25.7972 146.78C26.0239 146.847 26.2439 146.88 26.4572 146.88C26.7239 146.88 27.0039 146.847 27.2972 146.78C27.5639 146.713 27.8105 146.627 28.0372 146.52C28.2372 146.427 28.4572 146.28 28.6972 146.08C28.8305 145.973 29.0305 145.787 29.2972 145.52V143.44ZM36.6911 139.94C37.4378 138.433 38.4644 137.68 39.7711 137.68C40.2911 137.68 40.7511 137.8 41.1511 138.04L40.9311 139.38C40.8911 139.553 40.8044 139.64 40.6711 139.64C40.5778 139.64 40.4178 139.607 40.1911 139.54C39.9644 139.473 39.6911 139.44 39.3711 139.44C38.1978 139.44 37.3311 140.147 36.7711 141.56V146.56L37.9111 146.78C38.1111 146.82 38.2111 146.947 38.2111 147.16V148H33.5511V147.16C33.5511 146.947 33.6511 146.82 33.8511 146.78L34.9911 146.56V139.34C34.3511 139.22 33.9711 139.14 33.8511 139.1C33.6511 139.06 33.5511 138.933 33.5511 138.72V137.88H36.0111C36.1978 137.88 36.3244 137.913 36.3911 137.98C36.4578 138.047 36.5111 138.173 36.5511 138.36L36.6711 139.94H36.6911ZM46.2923 137.72C46.879 137.72 47.4323 137.82 47.9523 138.02C48.4857 138.22 48.9257 138.507 49.2723 138.88C49.6723 139.307 49.9657 139.78 50.1523 140.3C50.3657 140.9 50.4723 141.54 50.4723 142.22C50.4723 142.527 50.4457 142.713 50.3923 142.78C50.3257 142.873 50.2057 142.92 50.0323 142.92H43.3123C43.3123 143.56 43.3923 144.12 43.5523 144.6C43.6857 145.013 43.9123 145.4 44.2323 145.76C44.5257 146.093 44.859 146.333 45.2323 146.48C45.6323 146.64 46.059 146.72 46.5123 146.72C46.9923 146.72 47.379 146.673 47.6723 146.58C47.9523 146.487 48.2323 146.373 48.5123 146.24C48.8057 146.093 49.0057 145.987 49.1123 145.92C49.2857 145.813 49.419 145.76 49.5123 145.76C49.659 145.76 49.7723 145.82 49.8523 145.94L50.3523 146.6C50.1657 146.84 49.899 147.067 49.5523 147.28C49.1523 147.533 48.8257 147.7 48.5723 147.78C48.1723 147.913 47.8123 148.007 47.4923 148.06C47.0923 148.127 46.7257 148.16 46.3923 148.16C45.699 148.16 45.0523 148.04 44.4523 147.8C43.879 147.573 43.3657 147.22 42.9123 146.74C42.4857 146.3 42.1523 145.733 41.9123 145.04C41.6723 144.36 41.5523 143.587 41.5523 142.72C41.5523 142.027 41.6657 141.373 41.8923 140.76C42.119 140.133 42.4323 139.6 42.8323 139.16C43.2457 138.707 43.7457 138.353 44.3323 138.1C44.919 137.847 45.5723 137.72 46.2923 137.72ZM46.3323 139.02C45.4657 139.02 44.7923 139.267 44.3123 139.76C43.819 140.28 43.5123 140.973 43.3923 141.84H48.8923C48.8923 141.427 48.8323 141.053 48.7123 140.72C48.5657 140.307 48.4057 140.007 48.2323 139.82C48.0057 139.58 47.7323 139.387 47.4123 139.24C47.1057 139.107 46.739 139.04 46.3123 139.04L46.3323 139.02ZM60.933 146.76C61.933 146.76 62.8463 146.293 63.673 145.36V139.36C63.553 139.32 63.173 139.24 62.533 139.12C62.333 139.08 62.233 138.953 62.233 138.74V137.88H65.453V146.56C66.093 146.68 66.473 146.76 66.593 146.8C66.793 146.84 66.893 146.96 66.893 147.16V148.02H64.393C64.153 148.02 63.993 147.893 63.913 147.64L63.773 146.56C62.813 147.64 61.693 148.18 60.413 148.18C59.333 148.18 58.493 147.827 57.893 147.12C57.3063 146.413 57.013 145.487 57.013 144.34V139.34C56.3996 139.22 56.0263 139.14 55.893 139.1C55.6796 139.06 55.573 138.933 55.573 138.72V137.88H58.813V144.32C58.813 145.12 58.9863 145.72 59.333 146.12C59.693 146.533 60.2263 146.74 60.933 146.74V146.76ZM72.0419 137.72C72.7352 137.72 73.6152 137.9 74.6819 138.26V140.86H73.9019C73.7152 140.86 73.6019 140.767 73.5619 140.58L73.4419 139.26C72.8152 139.113 72.2952 139.04 71.8819 139.04H71.8619C71.3152 139.04 70.8552 139.187 70.4819 139.48C70.1219 139.76 69.9419 140.067 69.9419 140.4C69.9419 140.747 70.0219 141 70.1819 141.16C70.4485 141.467 70.8352 141.7 71.3419 141.86L71.9419 142.04C72.0485 142.067 72.2619 142.133 72.5819 142.24L73.5419 142.6C73.8085 142.693 74.0885 142.867 74.3819 143.12C74.9285 143.547 75.2019 144.133 75.2019 144.88C75.2019 145.853 74.8752 146.627 74.2219 147.2C73.5152 147.827 72.6219 148.14 71.5419 148.14C70.4352 148.14 69.3419 147.96 68.2619 147.6V144.96H68.9819C69.1419 144.96 69.2419 145.04 69.2819 145.2L69.4019 146.48C69.9352 146.747 70.6219 146.88 71.4619 146.88C72.1019 146.88 72.6219 146.713 73.0219 146.38C73.3685 146.073 73.5419 145.733 73.5419 145.36C73.5419 144.973 73.4619 144.693 73.3019 144.52C73.1152 144.307 72.9152 144.147 72.7019 144.04C72.4085 143.893 72.1285 143.787 71.8619 143.72C70.8752 143.4 70.2552 143.187 70.0019 143.08C69.6819 142.933 69.3819 142.747 69.1019 142.52C68.5419 142.053 68.2619 141.427 68.2619 140.64C68.2619 139.84 68.5819 139.16 69.2219 138.6C69.8885 138.013 70.8285 137.72 72.0419 137.72ZM83.3619 139.44C84.3352 138.267 85.4685 137.68 86.7619 137.68C87.9485 137.68 88.8819 138.12 89.5619 139C90.2552 139.933 90.6019 141.227 90.6019 142.88C90.6019 144.4 90.2152 145.647 89.4419 146.62C88.6285 147.633 87.6019 148.14 86.3619 148.14C85.1219 148.14 84.1485 147.747 83.4419 146.96V149.96L83.9819 150.08L84.5619 150.2C84.7752 150.24 84.8819 150.367 84.8819 150.58V151.44H80.2019V150.58C80.2019 150.367 80.3085 150.24 80.5219 150.2L81.6419 149.98V139.34C81.0285 139.22 80.6552 139.14 80.5219 139.1C80.3085 139.06 80.2019 138.933 80.2019 138.72V137.88H82.7219C82.9619 137.88 83.1219 138 83.2019 138.24L83.3419 139.44H83.3619ZM83.4419 145.56C84.0419 146.36 84.8152 146.76 85.7619 146.76C86.7485 146.76 87.4952 146.427 88.0019 145.76C88.5085 145.093 88.7619 144.133 88.7619 142.88C88.7619 141.64 88.5419 140.707 88.1019 140.08C87.6619 139.44 87.0152 139.12 86.1619 139.12C85.1085 139.12 84.2019 139.633 83.4419 140.66V145.56ZM94.8552 139.94C95.6018 138.433 96.6285 137.68 97.9352 137.68C98.4552 137.68 98.9152 137.8 99.3152 138.04L99.0952 139.38C99.0552 139.553 98.9685 139.64 98.8352 139.64C98.7418 139.64 98.5818 139.607 98.3552 139.54C98.1285 139.473 97.8552 139.44 97.5352 139.44C96.3618 139.44 95.4952 140.147 94.9352 141.56V146.56L96.0752 146.78C96.2752 146.82 96.3752 146.947 96.3752 147.16V148H91.7152V147.16C91.7152 146.947 91.8152 146.82 92.0152 146.78L93.1552 146.56V139.34C92.5152 139.22 92.1352 139.14 92.0152 139.1C91.8152 139.06 91.7152 138.933 91.7152 138.72V137.88H94.1752C94.3618 137.88 94.4885 137.913 94.5552 137.98C94.6218 138.047 94.6752 138.173 94.7152 138.36L94.8352 139.94H94.8552ZM104.456 137.72C105.043 137.72 105.596 137.82 106.116 138.02C106.65 138.22 107.09 138.507 107.436 138.88C107.836 139.307 108.13 139.78 108.316 140.3C108.53 140.9 108.636 141.54 108.636 142.22C108.636 142.527 108.61 142.713 108.556 142.78C108.49 142.873 108.37 142.92 108.196 142.92H101.476C101.476 143.56 101.556 144.12 101.716 144.6C101.85 145.013 102.076 145.4 102.396 145.76C102.69 146.093 103.023 146.333 103.396 146.48C103.796 146.64 104.223 146.72 104.676 146.72C105.156 146.72 105.543 146.673 105.836 146.58C106.116 146.487 106.396 146.373 106.676 146.24C106.97 146.093 107.17 145.987 107.276 145.92C107.45 145.813 107.583 145.76 107.676 145.76C107.823 145.76 107.936 145.82 108.016 145.94L108.516 146.6C108.33 146.84 108.063 147.067 107.716 147.28C107.316 147.533 106.99 147.7 106.736 147.78C106.336 147.913 105.976 148.007 105.656 148.06C105.256 148.127 104.89 148.16 104.556 148.16C103.863 148.16 103.216 148.04 102.616 147.8C102.043 147.573 101.53 147.22 101.076 146.74C100.65 146.3 100.316 145.733 100.076 145.04C99.8364 144.36 99.7164 143.587 99.7164 142.72C99.7164 142.027 99.8297 141.373 100.056 140.76C100.283 140.133 100.596 139.6 100.996 139.16C101.41 138.707 101.91 138.353 102.496 138.1C103.083 137.847 103.736 137.72 104.456 137.72ZM104.496 139.02C103.63 139.02 102.956 139.267 102.476 139.76C101.983 140.28 101.676 140.973 101.556 141.84H107.056C107.056 141.427 106.996 141.053 106.876 140.72C106.73 140.307 106.57 140.007 106.396 139.82C106.17 139.58 105.896 139.387 105.576 139.24C105.27 139.107 104.903 139.04 104.476 139.04L104.496 139.02ZM115.12 134.84C113.76 134.84 113.08 135.607 113.08 137.14V138.08H116V139.36H113.12V146.54C113.76 146.633 114.207 146.707 114.46 146.76C114.66 146.8 114.76 146.927 114.76 147.14V148H109.8V147.14C109.8 146.927 109.9 146.8 110.1 146.76L111.34 146.54V139.4L110.22 139.26C109.9 139.18 109.74 139.027 109.74 138.8V138.08H111.34V137.1C111.34 135.927 111.653 135.027 112.28 134.4C112.893 133.773 113.74 133.46 114.82 133.46C115.22 133.46 115.64 133.527 116.08 133.66L116.04 134.56C116.04 134.68 115.98 134.76 115.86 134.8C115.78 134.827 115.627 134.84 115.4 134.84H115.12ZM121.742 137.72C122.328 137.72 122.882 137.82 123.402 138.02C123.935 138.22 124.375 138.507 124.722 138.88C125.122 139.307 125.415 139.78 125.602 140.3C125.815 140.9 125.922 141.54 125.922 142.22C125.922 142.527 125.895 142.713 125.842 142.78C125.775 142.873 125.655 142.92 125.482 142.92H118.762C118.762 143.56 118.842 144.12 119.002 144.6C119.135 145.013 119.362 145.4 119.682 145.76C119.975 146.093 120.308 146.333 120.682 146.48C121.082 146.64 121.508 146.72 121.962 146.72C122.442 146.72 122.828 146.673 123.122 146.58C123.402 146.487 123.682 146.373 123.962 146.24C124.255 146.093 124.455 145.987 124.562 145.92C124.735 145.813 124.868 145.76 124.962 145.76C125.108 145.76 125.222 145.82 125.302 145.94L125.802 146.6C125.615 146.84 125.348 147.067 125.002 147.28C124.602 147.533 124.275 147.7 124.022 147.78C123.622 147.913 123.262 148.007 122.942 148.06C122.542 148.127 122.175 148.16 121.842 148.16C121.148 148.16 120.502 148.04 119.902 147.8C119.328 147.573 118.815 147.22 118.362 146.74C117.935 146.3 117.602 145.733 117.362 145.04C117.122 144.36 117.002 143.587 117.002 142.72C117.002 142.027 117.115 141.373 117.342 140.76C117.568 140.133 117.882 139.6 118.282 139.16C118.695 138.707 119.195 138.353 119.782 138.1C120.368 137.847 121.022 137.72 121.742 137.72ZM121.782 139.02C120.915 139.02 120.242 139.267 119.762 139.76C119.268 140.28 118.962 140.973 118.842 141.84H124.342C124.342 141.427 124.282 141.053 124.162 140.72C124.015 140.307 123.855 140.007 123.682 139.82C123.455 139.58 123.182 139.387 122.862 139.24C122.555 139.107 122.188 139.04 121.762 139.04L121.782 139.02ZM130.265 139.94C131.012 138.433 132.039 137.68 133.345 137.68C133.865 137.68 134.325 137.8 134.725 138.04L134.505 139.38C134.465 139.553 134.379 139.64 134.245 139.64C134.152 139.64 133.992 139.607 133.765 139.54C133.539 139.473 133.265 139.44 132.945 139.44C131.772 139.44 130.905 140.147 130.345 141.56V146.56L131.485 146.78C131.685 146.82 131.785 146.947 131.785 147.16V148H127.125V147.16C127.125 146.947 127.225 146.82 127.425 146.78L128.565 146.56V139.34C127.925 139.22 127.545 139.14 127.425 139.1C127.225 139.06 127.125 138.933 127.125 138.72V137.88H129.585C129.772 137.88 129.899 137.913 129.965 137.98C130.032 138.047 130.085 138.173 130.125 138.36L130.245 139.94H130.265ZM144.147 146.72C144.24 146.733 144.314 146.78 144.367 146.86C144.42 146.927 144.447 147.007 144.447 147.1V147.96H142.367C142.247 147.96 142.107 147.933 141.947 147.88C141.854 147.853 141.787 147.747 141.747 147.56L141.547 146.6L140.747 147.26C140.52 147.447 140.254 147.607 139.947 147.74C139.654 147.873 139.36 147.973 139.067 148.04C138.8 148.107 138.44 148.14 137.987 148.14C137.614 148.14 137.254 148.08 136.907 147.96C136.494 147.813 136.194 147.653 136.007 147.48C135.767 147.267 135.567 146.987 135.407 146.64C135.26 146.333 135.187 145.933 135.187 145.44C135.187 145.013 135.294 144.627 135.507 144.28C135.747 143.893 136.107 143.56 136.587 143.28C137.12 142.973 137.76 142.733 138.507 142.56C139.28 142.387 140.254 142.3 141.427 142.3V141.52C141.427 140.733 141.254 140.133 140.907 139.72C140.56 139.307 140.06 139.1 139.407 139.1C138.98 139.1 138.614 139.16 138.307 139.28C137.96 139.413 137.707 139.533 137.547 139.64C137.467 139.693 137.374 139.753 137.267 139.82C137.174 139.873 137.074 139.933 136.967 140C136.82 140.107 136.667 140.16 136.507 140.16C136.36 140.16 136.254 140.133 136.187 140.08C136.107 140.013 136.04 139.933 135.987 139.84L135.667 139.28C136.187 138.773 136.787 138.373 137.467 138.08C138.08 137.813 138.8 137.68 139.627 137.68C140.227 137.68 140.734 137.773 141.147 137.96C141.6 138.16 141.967 138.413 142.247 138.72C142.54 139.027 142.767 139.427 142.927 139.92C143.074 140.36 143.147 140.88 143.147 141.48V146.54C143.787 146.673 144.12 146.747 144.147 146.76V146.72ZM141.387 143.44C140.52 143.44 139.827 143.487 139.307 143.58C138.8 143.673 138.334 143.813 137.907 144C137.534 144.173 137.267 144.373 137.107 144.6C136.947 144.84 136.867 145.093 136.867 145.36C136.867 145.573 136.914 145.8 137.007 146.04C137.087 146.24 137.207 146.4 137.367 146.52C137.527 146.64 137.7 146.727 137.887 146.78C138.114 146.847 138.334 146.88 138.547 146.88C138.814 146.88 139.094 146.847 139.387 146.78C139.654 146.713 139.9 146.627 140.127 146.52C140.327 146.427 140.547 146.28 140.787 146.08C140.92 145.973 141.12 145.787 141.387 145.52V143.44ZM155.314 142.94C155.314 143.78 155.194 144.52 154.954 145.16C154.7 145.827 154.38 146.373 153.994 146.8C153.607 147.227 153.14 147.56 152.594 147.8C152.06 148.04 151.474 148.16 150.834 148.16C149.7 148.16 148.207 147.973 146.354 147.6V134.72L145.914 134.66L145.074 134.52C144.98 134.507 144.907 134.467 144.854 134.4C144.8 134.32 144.774 134.233 144.774 134.14V133.28H148.154V139.34C148.58 138.847 149.06 138.453 149.594 138.16C150.127 137.867 150.74 137.72 151.434 137.72C152.034 137.72 152.567 137.827 153.034 138.04C153.5 138.253 153.9 138.587 154.234 139.04C154.567 139.507 154.82 140.04 154.994 140.64C155.18 141.307 155.274 142.053 155.274 142.88H155.314V142.94ZM152.694 145.72C152.947 145.387 153.14 144.987 153.274 144.52C153.407 144.027 153.474 143.52 153.474 143V142.84C153.474 142.147 153.42 141.587 153.314 141.16C153.194 140.707 153.02 140.32 152.794 140C152.554 139.68 152.287 139.453 151.994 139.32C151.687 139.187 151.32 139.12 150.894 139.12C150.28 139.12 149.767 139.253 149.354 139.52C148.914 139.8 148.514 140.18 148.154 140.66V146.44C148.34 146.493 148.62 146.56 148.994 146.64C149.38 146.707 149.767 146.747 150.154 146.76H150.674C151.114 146.733 151.474 146.653 151.754 146.52C152.1 146.36 152.407 146.107 152.674 145.76L152.694 145.72ZM160.742 146.76C160.956 146.8 161.062 146.927 161.062 147.14V148H156.382V147.14C156.382 146.927 156.489 146.8 156.702 146.76L157.822 146.54V134.72C157.209 134.6 156.836 134.52 156.702 134.48C156.489 134.44 156.382 134.32 156.382 134.12V133.26H159.622V146.52C160.236 146.64 160.609 146.72 160.742 146.76ZM166.683 137.72C167.27 137.72 167.823 137.82 168.343 138.02C168.876 138.22 169.316 138.507 169.663 138.88C170.063 139.307 170.356 139.78 170.543 140.3C170.756 140.9 170.863 141.54 170.863 142.22C170.863 142.527 170.836 142.713 170.783 142.78C170.716 142.873 170.596 142.92 170.423 142.92H163.703C163.703 143.56 163.783 144.12 163.943 144.6C164.076 145.013 164.303 145.4 164.623 145.76C164.916 146.093 165.25 146.333 165.623 146.48C166.023 146.64 166.45 146.72 166.903 146.72C167.383 146.72 167.77 146.673 168.063 146.58C168.343 146.487 168.623 146.373 168.903 146.24C169.196 146.093 169.396 145.987 169.503 145.92C169.676 145.813 169.81 145.76 169.903 145.76C170.05 145.76 170.163 145.82 170.243 145.94L170.743 146.6C170.556 146.84 170.29 147.067 169.943 147.28C169.543 147.533 169.216 147.7 168.963 147.78C168.563 147.913 168.203 148.007 167.883 148.06C167.483 148.127 167.116 148.16 166.783 148.16C166.09 148.16 165.443 148.04 164.843 147.8C164.27 147.573 163.756 147.22 163.303 146.74C162.876 146.3 162.543 145.733 162.303 145.04C162.063 144.36 161.943 143.587 161.943 142.72C161.943 142.027 162.056 141.373 162.283 140.76C162.51 140.133 162.823 139.6 163.223 139.16C163.636 138.707 164.136 138.353 164.723 138.1C165.31 137.847 165.963 137.72 166.683 137.72ZM166.723 139.02C165.856 139.02 165.183 139.267 164.703 139.76C164.21 140.28 163.903 140.973 163.783 141.84H169.283C169.283 141.427 169.223 141.053 169.103 140.72C168.956 140.307 168.796 140.007 168.623 139.82C168.396 139.58 168.123 139.387 167.803 139.24C167.496 139.107 167.13 139.04 166.703 139.04L166.723 139.02ZM180.524 137.68C181.644 137.68 182.564 138.08 183.284 138.88V134.72L181.944 134.48C181.744 134.44 181.644 134.32 181.644 134.12V133.24H185.044V146.52C185.71 146.64 186.097 146.72 186.204 146.76C186.39 146.8 186.484 146.92 186.484 147.12V148H184.004C183.764 148 183.604 147.873 183.524 147.62L183.364 146.4C182.417 147.547 181.284 148.12 179.964 148.12C178.777 148.12 177.844 147.68 177.164 146.8C176.47 145.88 176.124 144.6 176.124 142.96C176.124 141.427 176.517 140.173 177.304 139.2C178.117 138.187 179.19 137.68 180.524 137.68ZM180.564 146.7C181.617 146.7 182.524 146.187 183.284 145.16V140.28C182.684 139.48 181.904 139.08 180.944 139.08C179.97 139.08 179.23 139.413 178.724 140.08C178.217 140.747 177.964 141.707 177.964 142.96C177.964 144.867 178.457 146.04 179.444 146.48C179.75 146.613 180.117 146.68 180.544 146.68L180.564 146.7ZM196.413 146.72C196.506 146.733 196.579 146.78 196.633 146.86C196.686 146.927 196.713 147.007 196.713 147.1V147.96H194.633C194.513 147.96 194.373 147.933 194.213 147.88C194.119 147.853 194.053 147.747 194.013 147.56L193.813 146.6L193.013 147.26C192.786 147.447 192.519 147.607 192.213 147.74C191.919 147.873 191.626 147.973 191.333 148.04C191.066 148.107 190.706 148.14 190.253 148.14C189.879 148.14 189.519 148.08 189.173 147.96C188.759 147.813 188.459 147.653 188.273 147.48C188.033 147.267 187.833 146.987 187.673 146.64C187.526 146.333 187.453 145.933 187.453 145.44C187.453 145.013 187.559 144.627 187.773 144.28C188.013 143.893 188.373 143.56 188.853 143.28C189.386 142.973 190.026 142.733 190.773 142.56C191.546 142.387 192.519 142.3 193.693 142.3V141.52C193.693 140.733 193.519 140.133 193.173 139.72C192.826 139.307 192.326 139.1 191.673 139.1C191.246 139.1 190.879 139.16 190.573 139.28C190.226 139.413 189.973 139.533 189.813 139.64C189.733 139.693 189.639 139.753 189.533 139.82C189.439 139.873 189.339 139.933 189.233 140C189.086 140.107 188.933 140.16 188.773 140.16C188.626 140.16 188.519 140.133 188.453 140.08C188.373 140.013 188.306 139.933 188.253 139.84L187.933 139.28C188.453 138.773 189.053 138.373 189.733 138.08C190.346 137.813 191.066 137.68 191.893 137.68C192.493 137.68 192.999 137.773 193.413 137.96C193.866 138.16 194.233 138.413 194.513 138.72C194.806 139.027 195.033 139.427 195.193 139.92C195.339 140.36 195.413 140.88 195.413 141.48V146.54C196.053 146.673 196.386 146.747 196.413 146.76V146.72ZM193.653 143.44C192.786 143.44 192.093 143.487 191.573 143.58C191.066 143.673 190.599 143.813 190.173 144C189.799 144.173 189.533 144.373 189.373 144.6C189.213 144.84 189.133 145.093 189.133 145.36C189.133 145.573 189.179 145.8 189.273 146.04C189.353 146.24 189.473 146.4 189.633 146.52C189.793 146.64 189.966 146.727 190.153 146.78C190.379 146.847 190.599 146.88 190.813 146.88C191.079 146.88 191.359 146.847 191.653 146.78C191.919 146.713 192.166 146.627 192.393 146.52C192.593 146.427 192.813 146.28 193.053 146.08C193.186 145.973 193.386 145.787 193.653 145.52V143.44ZM200.961 148.16C200.188 148.16 199.574 147.933 199.121 147.48C198.694 147.053 198.481 146.413 198.481 145.56V139.36H197.261C197.141 139.36 197.048 139.333 196.981 139.28C196.914 139.227 196.881 139.127 196.881 138.98V138.28L198.541 138.06L198.941 134.92C198.941 134.813 198.981 134.733 199.061 134.68C199.128 134.627 199.221 134.6 199.341 134.6H200.241V138.08H203.141V139.38H200.241V145.46C200.241 145.9 200.341 146.22 200.541 146.42C200.741 146.62 201.014 146.72 201.361 146.72C201.508 146.72 201.674 146.693 201.861 146.64C201.981 146.6 202.101 146.547 202.221 146.48C202.261 146.453 202.301 146.427 202.341 146.4C202.381 146.373 202.421 146.347 202.461 146.32C202.568 146.267 202.634 146.24 202.661 146.24C202.754 146.24 202.834 146.293 202.901 146.4L203.421 147.24C203.061 147.547 202.688 147.773 202.301 147.92C201.861 148.08 201.414 148.16 200.961 148.16ZM209.027 137.72C209.613 137.72 210.167 137.82 210.687 138.02C211.22 138.22 211.66 138.507 212.007 138.88C212.407 139.307 212.7 139.78 212.887 140.3C213.1 140.9 213.207 141.54 213.207 142.22C213.207 142.527 213.18 142.713 213.127 142.78C213.06 142.873 212.94 142.92 212.767 142.92H206.047C206.047 143.56 206.127 144.12 206.287 144.6C206.42 145.013 206.647 145.4 206.967 145.76C207.26 146.093 207.593 146.333 207.967 146.48C208.367 146.64 208.793 146.72 209.247 146.72C209.727 146.72 210.113 146.673 210.407 146.58C210.687 146.487 210.967 146.373 211.247 146.24C211.54 146.093 211.74 145.987 211.847 145.92C212.02 145.813 212.153 145.76 212.247 145.76C212.393 145.76 212.507 145.82 212.587 145.94L213.087 146.6C212.9 146.84 212.633 147.067 212.287 147.28C211.887 147.533 211.56 147.7 211.307 147.78C210.907 147.913 210.547 148.007 210.227 148.06C209.827 148.127 209.46 148.16 209.127 148.16C208.433 148.16 207.787 148.04 207.187 147.8C206.613 147.573 206.1 147.22 205.647 146.74C205.22 146.3 204.887 145.733 204.647 145.04C204.407 144.36 204.287 143.587 204.287 142.72C204.287 142.027 204.4 141.373 204.627 140.76C204.853 140.133 205.167 139.6 205.567 139.16C205.98 138.707 206.48 138.353 207.067 138.1C207.653 137.847 208.307 137.72 209.027 137.72ZM209.067 139.02C208.2 139.02 207.527 139.267 207.047 139.76C206.553 140.28 206.247 140.973 206.127 141.84H211.627C211.627 141.427 211.567 141.053 211.447 140.72C211.3 140.307 211.14 140.007 210.967 139.82C210.74 139.58 210.467 139.387 210.147 139.24C209.84 139.107 209.473 139.04 209.047 139.04L209.067 139.02ZM218.35 137.72C219.044 137.72 219.924 137.9 220.99 138.26V140.86H220.21C220.024 140.86 219.91 140.767 219.87 140.58L219.75 139.26C219.124 139.113 218.604 139.04 218.19 139.04H218.17C217.624 139.04 217.164 139.187 216.79 139.48C216.43 139.76 216.25 140.067 216.25 140.4C216.25 140.747 216.33 141 216.49 141.16C216.757 141.467 217.144 141.7 217.65 141.86L218.25 142.04C218.357 142.067 218.57 142.133 218.89 142.24L219.85 142.6C220.117 142.693 220.397 142.867 220.69 143.12C221.237 143.547 221.51 144.133 221.51 144.88C221.51 145.853 221.184 146.627 220.53 147.2C219.824 147.827 218.93 148.14 217.85 148.14C216.744 148.14 215.65 147.96 214.57 147.6V144.96H215.29C215.45 144.96 215.55 145.04 215.59 145.2L215.71 146.48C216.244 146.747 216.93 146.88 217.77 146.88C218.41 146.88 218.93 146.713 219.33 146.38C219.677 146.073 219.85 145.733 219.85 145.36C219.85 144.973 219.77 144.693 219.61 144.52C219.424 144.307 219.224 144.147 219.01 144.04C218.717 143.893 218.437 143.787 218.17 143.72C217.184 143.4 216.564 143.187 216.31 143.08C215.99 142.933 215.69 142.747 215.41 142.52C214.85 142.053 214.57 141.427 214.57 140.64C214.57 139.84 214.89 139.16 215.53 138.6C216.197 138.013 217.137 137.72 218.35 137.72Z" fill="#0D606F"/>
<rect x="61" y="11" width="100" height="100" rx="16" fill="#F2785C"/>
<path d="M98.7222 63.8889C99.6799 63.8889 100.598 63.5084 101.276 62.8312C101.953 62.154 102.333 61.2355 102.333 60.2778C102.333 59.3201 101.953 58.4016 101.276 57.7243C100.598 57.0471 99.6799 56.6667 98.7222 56.6667C97.7645 56.6667 96.846 57.0471 96.1688 57.7243C95.4916 58.4016 95.1111 59.3201 95.1111 60.2778C95.1111 61.2355 95.4916 62.154 96.1688 62.8312C96.846 63.5084 97.7645 63.8889 98.7222 63.8889ZM114.611 60.2778C114.611 61.2355 114.231 62.154 113.553 62.8312C112.876 63.5084 111.958 63.8889 111 63.8889C110.042 63.8889 109.124 63.5084 108.447 62.8312C107.769 62.154 107.389 61.2355 107.389 60.2778C107.389 59.3201 107.769 58.4016 108.447 57.7243C109.124 57.0471 110.042 56.6667 111 56.6667C111.958 56.6667 112.876 57.0471 113.553 57.7243C114.231 58.4016 114.611 59.3201 114.611 60.2778ZM123.278 63.8889C124.236 63.8889 125.154 63.5084 125.831 62.8312C126.508 62.154 126.889 61.2355 126.889 60.2778C126.889 59.3201 126.508 58.4016 125.831 57.7243C125.154 57.0471 124.236 56.6667 123.278 56.6667C122.32 56.6667 121.402 57.0471 120.724 57.7243C120.047 58.4016 119.667 59.3201 119.667 60.2778C119.667 61.2355 120.047 62.154 120.724 62.8312C121.402 63.5084 122.32 63.8889 123.278 63.8889ZM102.333 71.8333C102.333 72.7911 101.953 73.7096 101.276 74.3868C100.598 75.064 99.6799 75.4444 98.7222 75.4444C97.7645 75.4444 96.846 75.064 96.1688 74.3868C95.4916 73.7096 95.1111 72.7911 95.1111 71.8333C95.1111 70.8756 95.4916 69.9571 96.1688 69.2799C96.846 68.6027 97.7645 68.2222 98.7222 68.2222C99.6799 68.2222 100.598 68.6027 101.276 69.2799C101.953 69.9571 102.333 70.8756 102.333 71.8333ZM111 75.4444C111.958 75.4444 112.876 75.064 113.553 74.3868C114.231 73.7096 114.611 72.7911 114.611 71.8333C114.611 70.8756 114.231 69.9571 113.553 69.2799C112.876 68.6027 111.958 68.2222 111 68.2222C110.042 68.2222 109.124 68.6027 108.447 69.2799C107.769 69.9571 107.389 70.8756 107.389 71.8333C107.389 72.7911 107.769 73.7096 108.447 74.3868C109.124 75.064 110.042 75.4444 111 75.4444ZM85 44.0278C85 41.6335 85.9511 39.3372 87.6442 37.6442C89.3372 35.9511 91.6335 35 94.0278 35H127.972C130.367 35 132.663 35.9511 134.356 37.6442C136.049 39.3372 137 41.6335 137 44.0278V77.9722C137 80.3665 136.049 82.6628 134.356 84.3558C132.663 86.0489 130.367 87 127.972 87H94.0278C91.6335 87 89.3372 86.0489 87.6442 84.3558C85.9511 82.6628 85 80.3665 85 77.9722V44.0278ZM94.0278 38.6111C92.5912 38.6111 91.2134 39.1818 90.1976 40.1976C89.1818 41.2134 88.6111 42.5912 88.6111 44.0278V46.5556H133.389V44.0278C133.389 42.5912 132.818 41.2134 131.802 40.1976C130.787 39.1818 129.409 38.6111 127.972 38.6111H94.0278ZM88.6111 77.9722C88.6111 79.4088 89.1818 80.7866 90.1976 81.8024C91.2134 82.8182 92.5912 83.3889 94.0278 83.3889H127.972C129.409 83.3889 130.787 82.8182 131.802 81.8024C132.818 80.7866 133.389 79.4088 133.389 77.9722V50.1667H88.6111V77.9722Z" fill="white"/>
</svg>
